<?xml version="1.0" encoding="UTF-8"?>
<!-- Created with Inkscape (http://www.inkscape.org/) -->
<svg width="50mm" height="50mm" version="1.1" viewBox="0 0 50 50" xmlns="http://www.w3.org/2000/svg">
 <rect width="50" height="50" fill="#2170fe" stroke-linecap="round" stroke-linejoin="round" stroke-width="1.6832" style="paint-order:markers fill stroke"/>
 <g fill="#fff" stroke-width=".26458" aria-label="s&amp;k">
  <path d="m7.5829 34.645q-1.8027 0-3.2103-0.61736t-2.2225-1.6792q-0.81492-1.0866-0.91369-2.4201h4.1734q0.074083 0.71614 0.66675 1.1606 0.59267 0.4445 1.457 0.4445 0.79022 0 1.21-0.29633 0.4445-0.32103 0.4445-0.81492 0-0.59267-0.61736-0.8643-0.61736-0.29633-2.0002-0.64206-1.4817-0.34572-2.4694-0.71614-0.98778-0.39511-1.7039-1.21-0.71614-0.83961-0.71614-2.2472 0-1.1853 0.64205-2.1484 0.66675-0.98778 1.9262-1.5557 1.2841-0.56797 3.0374-0.56797 2.5929 0 4.0746 1.2841 1.5064 1.2841 1.7286 3.4078h-3.9017q-0.098778-0.71614-0.64205-1.1359-0.51858-0.4198-1.3829-0.4198-0.74083 0-1.1359 0.29633-0.39511 0.27164-0.39511 0.76553 0 0.59267 0.61736 0.889 0.64205 0.29633 1.9756 0.59266 1.5311 0.39511 2.4941 0.79022 0.96308 0.37042 1.6792 1.2347 0.74083 0.83961 0.76553 2.2719 0 1.21-0.69144 2.1731-0.66675 0.93839-1.9509 1.4817-1.2594 0.54328-2.9386 0.54328z"/>
  <path d="m29.018 34.448-1.6051-1.5557q-2.3954 1.8274-5.7291 1.8274-2.0002 0-3.4819-0.64205-1.4817-0.66675-2.2966-1.8521-0.79022-1.21-0.79022-2.8152 0-1.6298 0.8643-2.9386 0.889-1.3335 2.6423-2.1731-0.64205-0.79022-0.91369-1.5064-0.27164-0.74083-0.27164-1.6051 0-1.2347 0.64205-2.2472 0.64206-1.0125 1.8521-1.5804 1.2347-0.59267 2.9139-0.59267 1.7039 0 2.8892 0.61736 1.1853 0.61736 1.778 1.6545 0.59267 1.0372 0.54328 2.2719h-3.9758q0.02469-0.66675-0.34572-1.0125-0.34572-0.37042-0.93839-0.37042t-0.98778 0.34572q-0.39511 0.34572-0.39511 0.889 0 0.51858 0.32103 1.0866 0.34572 0.56797 1.0619 1.3088l4.2227 4.124q0.04939-0.12347 0.12347-0.29633 0.09878-0.17286 0.19756-0.39511l0.91369-1.5557h4.2227l-1.1853 2.1484q-0.66675 1.457-1.5311 2.7658l4.1734 4.0993zm-7.1367-3.1362q1.6545 0 2.9386-0.93839l-3.8523-3.7289q-1.778 0.91369-1.778 2.4694 0 0.93839 0.71614 1.5804 0.74083 0.61736 1.9756 0.61736z"/>
  <path d="m43.884 34.448-4.198-5.7785v5.7785h-4.2227v-18.274h4.2227v10.1l4.1734-5.6056h5.2105l-5.7291 6.9144 5.7785 6.865z"/>
 </g>
</svg>